<svg height="2500" viewBox="0 0 192.756 192.756" width="2500" xmlns="http://www.w3.org/2000/svg"><g clip-rule="evenodd" fill-rule="evenodd"><path d="m0 0h192.756v192.756h-192.756z" fill="#fff"/><g fill="#31a561"><path d="m38.17 90.091 18.231 18.002c1.657-3.543 2.686-7.486 2.686-11.717 0-7.429-3.143-14.23-8.001-19.144zm59.779-12.63h-6.629l-14.573 17.602v-17.487h-5.43v36.918h5.43v-18.117l14.573 18.004h7.371l-15.601-18.803z"/><path d="m46.686 73.689c-4.286-2.743-9.372-4.458-14.745-4.458-2.686 0-5.314.458-7.829 1.143v52.063c2.515.744 5.144 1.088 7.829 1.088 5.601 0 10.801-1.715 15.202-4.631l-22.574-22.687zm-34.576 41.434v-37.376a27.282 27.282 0 0 0 -7.315 18.63c0 7.26 2.743 13.832 7.315 18.746zm143.161-37.662h-6.687l-14.572 17.602v-17.487h-5.371v36.918h5.371v-18.117l14.572 18.004h7.373l-15.602-18.803zm8.858.115h-6.398v36.918h5.312v-9.43h12.518l6.115 9.43h6.285zm-1.199 23.26v-15.946l10.172 15.946zm-38.576-12.231c0-6.114-4.973-11.029-11.029-11.029h-12.117v36.918h5.314v-19.031l12.859 19.031h7.373l-10.859-15.144c4.859-1.258 8.459-5.544 8.459-10.745zm-17.833 6.344v-13.087h5.887c3.602.114 6.459 3.143 6.459 6.629 0 3.601-2.973 6.573-6.516 6.573z"/></g></g></svg>